<?xml version="1.0" encoding="utf-8"?>
<!-- Generator: Adobe Illustrator 19.0.0, SVG Export Plug-In . SVG Version: 6.00 Build 0)  -->
<svg version="1.2" baseProfile="tiny" id="Layer_1" xmlns="http://www.w3.org/2000/svg" xmlns:xlink="http://www.w3.org/1999/xlink"
	 x="0px" y="0px" viewBox="0 0 23 23" xml:space="preserve">
<path id="XMLID_28_" d="M15.6,11.5l6.6-6.6c1.1-1.1,1.1-2.9,0-4.1v0c-1.1-1.1-2.9-1.1-4.1,0l-6.6,6.6L4.9,0.8C3.8-0.3,2-0.3,0.8,0.8
	v0c-1.1,1.1-1.1,2.9,0,4.1l6.6,6.6l-6.6,6.6c-1.1,1.1-1.1,2.9,0,4.1c1.1,1.1,2.9,1.1,4.1,0l6.6-6.6l6.6,6.6c1.1,1.1,2.9,1.1,4.1,0
	c1.1-1.1,1.1-2.9,0-4.1L15.6,11.5z"/>
</svg>
